<svg xmlns="http://www.w3.org/2000/svg" width="19" height="19" fill="none" viewBox="0 0 19 19"><path stroke="#fff" stroke-linecap="round" stroke-linejoin="round" stroke-width="1.5" d="M9.5 5.25V11.2M9.5 11.2L12.05 8.65M9.5 11.2L6.95 8.65"/><path stroke="#fff" stroke-linecap="round" stroke-width="1.5" d="M12.9 13.75H6.1M18 9.5C18 13.5069 18 15.5104 16.7548 16.7548C15.5112 18 13.5069 18 9.5 18C5.4931 18 3.48965 18 2.2444 16.7548C1 15.5112 1 13.5069 1 9.5C1 5.4931 1 3.48965 2.2444 2.2444C3.4905 1 5.4931 1 9.5 1C13.5069 1 15.5104 1 16.7548 2.2444C17.5827 3.0723 17.8598 4.23595 17.9533 6.1"/></svg>